<svg width="30" height="30" xmlns="http://www.w3.org/2000/svg">
  <rect width="30" height="30" fill="#000" rx="3"/>
  <path d="M22 8c-.8.4-1.6.6-2.5.7.9-.5 1.6-1.3 1.9-2.3-.8.5-1.8.9-2.8 1.1C17.8 6.8 16.7 6 15.4 6c-2.3 0-4.1 1.9-4.1 4.1 0 .3 0 .6.1.9C9.6 10.7 7.1 9.4 5.4 7.2c-.4.6-.6 1.3-.6 2.1 0 1.4.7 2.7 1.8 3.4-.7 0-1.3-.2-1.9-.5v.1c0 2 1.4 3.6 3.3 4-.3.1-.7.1-1.1.1-.3 0-.5 0-.8-.1.5 1.6 2 2.8 3.8 2.8-1.4 1.1-3.2 1.8-5.1 1.8-.3 0-.7 0-1-.1 1.8.9 4 1.5 6.3 1.5 7.6 0 11.7-6.3 11.7-11.7v-.5c.8-.6 1.5-1.3 2-2.1z" fill="#fff"/>
</svg>